<svg width="88" height="36" viewBox="0 0 88 36" fill="none" xmlns="http://www.w3.org/2000/svg">
<g clip-path="url(#clip0_57_2463)">
<path d="M18 0C8.05875 0 0 8.05875 0 18C0 27.9412 8.05875 36 18 36C27.9412 36 36 27.9412 36 18C36 8.05875 27.9412 0 18 0ZM24.9225 20.3081C24.9225 20.3081 26.5144 21.8794 26.9062 22.6087C26.9175 22.6237 26.9231 22.6387 26.9269 22.6462C27.0862 22.9144 27.1237 23.1225 27.045 23.2781C26.9137 23.5369 26.4637 23.6644 26.31 23.6756H23.4975C23.3025 23.6756 22.8937 23.625 22.3987 23.2837C22.0181 23.0175 21.6431 22.5806 21.2775 22.155C20.7319 21.5212 20.2594 20.9738 19.7831 20.9738C19.7226 20.9736 19.6625 20.9831 19.605 21.0019C19.245 21.1181 18.7838 21.6319 18.7838 23.0006C18.7838 23.4281 18.4462 23.6737 18.2081 23.6737H16.92C16.4812 23.6737 14.1956 23.52 12.1706 21.3844C9.69187 18.7687 7.46062 13.5225 7.44187 13.4737C7.30125 13.1344 7.59187 12.9525 7.90875 12.9525H10.7494C11.1281 12.9525 11.2519 13.1831 11.3381 13.3875C11.4394 13.6256 11.8106 14.5725 12.42 15.6375C13.4081 17.3737 14.0138 18.0787 14.4994 18.0787C14.5904 18.0777 14.6799 18.0545 14.76 18.0112C15.3937 17.6587 15.2756 15.3994 15.2475 14.9306C15.2475 14.8425 15.2456 13.92 14.9212 13.4775C14.6887 13.1569 14.2931 13.035 14.0531 12.99C14.1503 12.856 14.2782 12.7473 14.4262 12.6731C14.8612 12.4556 15.645 12.4237 16.4231 12.4237H16.8563C17.7 12.435 17.9175 12.4894 18.2231 12.5662C18.8419 12.7144 18.855 13.1137 18.8006 14.4806C18.7838 14.8687 18.7669 15.3075 18.7669 15.825C18.7669 15.9375 18.7612 16.0575 18.7612 16.185C18.7425 16.8806 18.72 17.67 19.2112 17.9944C19.2753 18.0346 19.3494 18.056 19.425 18.0562C19.5956 18.0562 20.1094 18.0562 21.5006 15.6694C21.9297 14.9011 22.3025 14.1028 22.6162 13.2806C22.6444 13.2319 22.7269 13.0819 22.8244 13.0237C22.8963 12.9871 22.9761 12.9684 23.0569 12.9694H26.3962C26.76 12.9694 27.0094 13.0237 27.0562 13.1644C27.1387 13.3875 27.0412 14.0681 25.5169 16.1325L24.8362 17.0306C23.4544 18.8419 23.4544 18.9338 24.9225 20.3081Z" fill="#FF7020"/>
</g>
<g clip-path="url(#clip1_57_2463)">
<path d="M88 18C88 22.7739 86.1036 27.3523 82.7279 30.7279C79.3523 34.1036 74.7739 36 70 36C65.2261 36 60.6477 34.1036 57.2721 30.7279C53.8964 27.3523 52 22.7739 52 18C52 13.2261 53.8964 8.64773 57.2721 5.27208C60.6477 1.89642 65.2261 0 70 0C74.7739 0 79.3523 1.89642 82.7279 5.27208C86.1036 8.64773 88 13.2261 88 18ZM70.6458 13.2885C68.8952 14.0175 65.3942 15.525 60.1473 17.811C59.2968 18.1485 58.849 18.4815 58.8085 18.8055C58.741 19.3522 59.4273 19.5683 60.361 19.863L60.7548 19.9868C61.6728 20.286 62.9102 20.6348 63.5515 20.6483C64.1365 20.6618 64.7867 20.4233 65.5045 19.9283C70.4072 16.6185 72.9385 14.9467 73.096 14.9107C73.2085 14.8837 73.366 14.8523 73.4695 14.9468C73.5752 15.039 73.564 15.2168 73.5528 15.264C73.4853 15.5542 70.792 18.0562 69.3993 19.3522C68.965 19.7572 68.6567 20.043 68.5938 20.1082C68.455 20.25 68.314 20.3895 68.1707 20.5268C67.3157 21.3503 66.6768 21.9668 68.2045 22.9748C68.9403 23.4608 69.5298 23.859 70.117 24.2595C70.756 24.696 71.395 25.1303 72.223 25.6748C72.4322 25.8098 72.6348 25.956 72.8305 26.0955C73.5753 26.6265 74.248 27.1035 75.0737 27.027C75.5553 26.982 76.0525 26.532 76.3045 25.182C76.9007 21.9938 78.073 15.0885 78.343 12.2423C78.3595 12.0056 78.3497 11.7679 78.3137 11.5335C78.2926 11.3443 78.201 11.17 78.0573 11.0452C77.8525 10.9039 77.6085 10.8307 77.3597 10.836C76.6847 10.8472 75.643 11.2095 70.6458 13.2885Z" fill="#FF7020"/>
</g>
<defs>
<clipPath id="clip0_57_2463">
<rect width="36" height="36" fill="white"/>
</clipPath>
<clipPath id="clip1_57_2463">
<rect width="36" height="36" fill="white" transform="translate(52)"/>
</clipPath>
</defs>
</svg>
